M48
; DRILL file {KiCad 7.0.11+dfsg-1build4} date Mon 31 Aug 2026 04:27:38 PM UTC
; FORMAT={-:-/ absolute / metric / decimal}
; #@! TF.CreationDate,2026-08-31T16:27:38+00:00
; #@! TF.GenerationSoftware,Kicad,Pcbnew,7.0.11+dfsg-1build4
; #@! TF.FileFunction,MixedPlating,1,2
FMAT,2
METRIC
; #@! TA.AperFunction,Plated,PTH,ViaDrill
T1C0.400
; #@! TA.AperFunction,Plated,PTH,ComponentDrill
T2C0.800
; #@! TA.AperFunction,Plated,PTH,ComponentDrill
T3C0.900
; #@! TA.AperFunction,Plated,PTH,ComponentDrill
T4C1.000
; #@! TA.AperFunction,Plated,PTH,ComponentDrill
T5C1.100
; #@! TA.AperFunction,Plated,PTH,ComponentDrill
T6C1.520
; #@! TA.AperFunction,Plated,PTH,ComponentDrill
T7C1.800
; #@! TA.AperFunction,NonPlated,NPTH,ComponentDrill
T8C3.200
%
G90
G05
T1
X71.055Y-78.119
X108.779Y-34.151
T2
X12.0Y-34.0
X12.0Y-43.0
X12.0Y-52.0
X12.0Y-61.0
X12.0Y-70.0
X12.0Y-79.0
X17.0Y-79.0
X19.62Y-34.0
X19.62Y-43.0
X19.62Y-52.0
X19.62Y-61.0
X19.62Y-70.0
X24.5Y-34.0
X24.5Y-43.0
X24.5Y-52.0
X24.5Y-61.0
X24.5Y-70.0
X24.5Y-79.0
X27.0Y-52.0
X27.0Y-70.0
X29.5Y-34.0
X29.5Y-43.0
X29.5Y-61.0
X29.5Y-79.0
X34.0Y-20.0
X34.0Y-22.54
X34.0Y-25.08
X34.0Y-27.62
X37.0Y-34.0
X37.0Y-43.0
X37.0Y-52.0
X37.0Y-61.0
X37.0Y-70.0
X37.0Y-79.0
X39.5Y-79.0
X41.62Y-20.0
X41.62Y-22.54
X41.62Y-25.08
X41.62Y-27.62
X44.62Y-34.0
X44.62Y-43.0
X44.62Y-52.0
X44.62Y-61.0
X44.62Y-70.0
X49.5Y-34.0
X49.5Y-43.0
X49.5Y-52.0
X49.5Y-61.0
X49.5Y-70.0
X49.5Y-79.0
X52.0Y-43.0
X52.0Y-70.0
X52.0Y-79.0
X54.5Y-34.0
X54.5Y-52.0
X54.5Y-61.0
X64.0Y-64.0
X64.0Y-73.0
X64.0Y-82.0
X66.5Y-82.0
X71.62Y-64.0
X71.62Y-73.0
X76.5Y-64.0
X76.5Y-73.0
X76.5Y-82.0
X81.5Y-82.0
X84.12Y-64.0
X84.12Y-73.0
X89.0Y-64.0
X89.0Y-73.0
X89.0Y-82.0
X91.5Y-82.0
X94.0Y-73.0
X96.62Y-64.0
T3
X62.0Y-102.0
X63.27Y-102.0
X64.54Y-102.0
X65.81Y-102.0
X76.0Y-102.0
X78.54Y-102.0
T4
X8.0Y-18.0
X8.0Y-20.54
X8.0Y-23.08
X8.0Y-25.62
X8.0Y-28.16
X8.0Y-92.0
X8.0Y-94.54
X8.0Y-97.08
X24.0Y-100.0
X24.0Y-102.5
X24.0Y-105.0
X64.0Y-14.0
X64.0Y-16.54
X64.0Y-19.08
X64.0Y-21.62
X64.0Y-24.16
X64.0Y-26.7
X64.0Y-29.24
X64.0Y-31.78
X64.0Y-34.32
X64.0Y-36.86
X64.0Y-39.4
X64.0Y-41.94
X64.0Y-44.48
X64.0Y-47.02
X64.0Y-49.56
X79.24Y-14.0
X79.24Y-16.54
X79.24Y-19.08
X79.24Y-21.62
X79.24Y-24.16
X79.24Y-26.7
X79.24Y-29.24
X79.24Y-31.78
X79.24Y-34.32
X79.24Y-36.86
X79.24Y-39.4
X79.24Y-41.94
X79.24Y-44.48
X79.24Y-47.02
X79.24Y-49.56
X98.0Y-14.0
X98.0Y-16.54
X98.0Y-19.08
X98.0Y-21.62
X98.0Y-24.16
X98.0Y-26.7
X98.0Y-29.24
X98.0Y-31.78
X100.54Y-14.0
X100.54Y-16.54
X100.54Y-19.08
X100.54Y-21.62
X100.54Y-24.16
X100.54Y-26.7
X100.54Y-29.24
X100.54Y-31.78
T5
X46.0Y-100.0
X46.0Y-104.5
X52.5Y-100.0
X52.5Y-104.5
T6
X120.0Y-55.0
X120.0Y-92.0
X125.08Y-55.0
X125.08Y-92.0
X126.0Y-18.0
X130.16Y-55.0
X130.16Y-92.0
X131.08Y-18.0
X135.24Y-55.0
X135.24Y-92.0
T8
X6.0Y-6.0
X6.0Y-104.0
X134.0Y-6.0
X134.0Y-104.0
T7
X30.85Y-98.1G85X31.15Y-98.1
G05
X30.85Y-106.9G85X31.15Y-106.9
G05
M30
