%TF.GenerationSoftware,KiCad,Pcbnew,7.0.11+dfsg-1build4*%
%TF.CreationDate,2026-08-31T16:27:38+00:00*%
%TF.ProjectId,krrl_player,6b72726c-5f70-46c6-9179-65722e6b6963,rev?*%
%TF.SameCoordinates,Original*%
%TF.FileFunction,Soldermask,Bot*%
%TF.FilePolarity,Negative*%
%FSLAX46Y46*%
G04 Gerber Fmt 4.6, Leading zero omitted, Abs format (unit mm)*
G04 Created by KiCad (PCBNEW 7.0.11+dfsg-1build4) date 2026-08-31 16:27:38*
%MOMM*%
%LPD*%
G01*
G04 APERTURE LIST*
G04 Aperture macros list*
%AMRoundRect*
0 Rectangle with rounded corners*
0 $1 Rounding radius*
0 $2 $3 $4 $5 $6 $7 $8 $9 X,Y pos of 4 corners*
0 Add a 4 corners polygon primitive as box body*
4,1,4,$2,$3,$4,$5,$6,$7,$8,$9,$2,$3,0*
0 Add four circle primitives for the rounded corners*
1,1,$1+$1,$2,$3*
1,1,$1+$1,$4,$5*
1,1,$1+$1,$6,$7*
1,1,$1+$1,$8,$9*
0 Add four rect primitives between the rounded corners*
20,1,$1+$1,$2,$3,$4,$5,0*
20,1,$1+$1,$4,$5,$6,$7,0*
20,1,$1+$1,$6,$7,$8,$9,0*
20,1,$1+$1,$8,$9,$2,$3,0*%
G04 Aperture macros list end*
%ADD10C,3.200000*%
%ADD11C,1.600000*%
%ADD12O,1.600000X1.600000*%
%ADD13C,2.000000*%
%ADD14R,1.600000X1.600000*%
%ADD15R,1.700000X1.700000*%
%ADD16O,1.700000X1.700000*%
%ADD17R,1.800000X1.800000*%
%ADD18C,1.800000*%
%ADD19RoundRect,0.750000X-1.250000X-0.750000X1.250000X-0.750000X1.250000X0.750000X-1.250000X0.750000X0*%
%ADD20R,1.070000X1.800000*%
%ADD21O,1.070000X1.800000*%
%ADD22R,3.000000X3.000000*%
%ADD23C,3.000000*%
G04 APERTURE END LIST*
D10*
%TO.C,H2*%
X134000000Y-6000000D03*
%TD*%
D11*
%TO.C,C_AR*%
X24500000Y-61000000D03*
X29500000Y-61000000D03*
%TD*%
%TO.C,R_B*%
X89000000Y-64000000D03*
D12*
X96620000Y-64000000D03*
%TD*%
D13*
%TO.C,SW1*%
X46000000Y-100000000D03*
X52500000Y-100000000D03*
X46000000Y-104500000D03*
X52500000Y-104500000D03*
%TD*%
D14*
%TO.C,C_OL*%
X24500000Y-52000000D03*
D11*
X27000000Y-52000000D03*
%TD*%
D15*
%TO.C,J2*%
X79240000Y-14000000D03*
D16*
X79240000Y-16540000D03*
X79240000Y-19080000D03*
X79240000Y-21620000D03*
X79240000Y-24160000D03*
X79240000Y-26700000D03*
X79240000Y-29240000D03*
X79240000Y-31780000D03*
X79240000Y-34320000D03*
X79240000Y-36860000D03*
X79240000Y-39400000D03*
X79240000Y-41940000D03*
X79240000Y-44480000D03*
X79240000Y-47020000D03*
X79240000Y-49560000D03*
%TD*%
D17*
%TO.C,RV1*%
X24000000Y-100000000D03*
D18*
X24000000Y-102500000D03*
X24000000Y-105000000D03*
D19*
X31000000Y-98100000D03*
X31000000Y-106900000D03*
%TD*%
D15*
%TO.C,J_CART*%
X8000000Y-18000000D03*
D16*
X8000000Y-20540000D03*
X8000000Y-23080000D03*
X8000000Y-25620000D03*
X8000000Y-28160000D03*
%TD*%
D11*
%TO.C,R_AL*%
X37000000Y-34000000D03*
D12*
X44620000Y-34000000D03*
%TD*%
D15*
%TO.C,J1*%
X64000000Y-14000000D03*
D16*
X64000000Y-16540000D03*
X64000000Y-19080000D03*
X64000000Y-21620000D03*
X64000000Y-24160000D03*
X64000000Y-26700000D03*
X64000000Y-29240000D03*
X64000000Y-31780000D03*
X64000000Y-34320000D03*
X64000000Y-36860000D03*
X64000000Y-39400000D03*
X64000000Y-41940000D03*
X64000000Y-44480000D03*
X64000000Y-47020000D03*
X64000000Y-49560000D03*
%TD*%
D11*
%TO.C,C_5V*%
X89000000Y-73000000D03*
X94000000Y-73000000D03*
%TD*%
%TO.C,R_AR*%
X12000000Y-61000000D03*
D12*
X19620000Y-61000000D03*
%TD*%
D14*
%TO.C,C_VNB*%
X49500000Y-79000000D03*
D11*
X52000000Y-79000000D03*
%TD*%
D20*
%TO.C,D_RGB*%
X62000000Y-102000000D03*
D21*
X63270000Y-102000000D03*
X64540000Y-102000000D03*
X65810000Y-102000000D03*
%TD*%
D15*
%TO.C,M1*%
X98000000Y-14000000D03*
D16*
X100540000Y-14000000D03*
X98000000Y-16540000D03*
X100540000Y-16540000D03*
X98000000Y-19080000D03*
X100540000Y-19080000D03*
X98000000Y-21620000D03*
X100540000Y-21620000D03*
X98000000Y-24160000D03*
X100540000Y-24160000D03*
X98000000Y-26700000D03*
X100540000Y-26700000D03*
X98000000Y-29240000D03*
X100540000Y-29240000D03*
X98000000Y-31780000D03*
X100540000Y-31780000D03*
%TD*%
D14*
%TO.C,C_VMOT*%
X89000000Y-82000000D03*
D11*
X91500000Y-82000000D03*
%TD*%
D14*
%TO.C,C_GR*%
X24500000Y-70000000D03*
D11*
X27000000Y-70000000D03*
%TD*%
%TO.C,C_LDR*%
X49500000Y-52000000D03*
X54500000Y-52000000D03*
%TD*%
%TO.C,C_LDL*%
X24500000Y-34000000D03*
X29500000Y-34000000D03*
%TD*%
D22*
%TO.C,J_PM*%
X126000000Y-18000000D03*
D23*
X131080000Y-18000000D03*
%TD*%
D11*
%TO.C,R_R*%
X64000000Y-64000000D03*
D12*
X71620000Y-64000000D03*
%TD*%
D17*
%TO.C,D_PWR*%
X76000000Y-102000000D03*
D18*
X78540000Y-102000000D03*
%TD*%
D10*
%TO.C,H3*%
X6000000Y-104000000D03*
%TD*%
D11*
%TO.C,R_GL*%
X37000000Y-43000000D03*
D12*
X44620000Y-43000000D03*
%TD*%
D11*
%TO.C,C_BR*%
X49500000Y-61000000D03*
X54500000Y-61000000D03*
%TD*%
%TO.C,C_VN*%
X24500000Y-79000000D03*
X29500000Y-79000000D03*
%TD*%
%TO.C,R_LDL*%
X12000000Y-34000000D03*
D12*
X19620000Y-34000000D03*
%TD*%
D14*
%TO.C,C_OR*%
X49500000Y-70000000D03*
D11*
X52000000Y-70000000D03*
%TD*%
D14*
%TO.C,U2*%
X34000000Y-20000000D03*
D12*
X34000000Y-22540000D03*
X34000000Y-25080000D03*
X34000000Y-27620000D03*
X41620000Y-27620000D03*
X41620000Y-25080000D03*
X41620000Y-22540000D03*
X41620000Y-20000000D03*
%TD*%
D15*
%TO.C,J_OUT*%
X8000000Y-92000000D03*
D16*
X8000000Y-94540000D03*
X8000000Y-97080000D03*
%TD*%
D10*
%TO.C,H1*%
X6000000Y-6000000D03*
%TD*%
D14*
%TO.C,C_5VB*%
X64000000Y-82000000D03*
D11*
X66500000Y-82000000D03*
%TD*%
%TO.C,C_AL*%
X49500000Y-34000000D03*
X54500000Y-34000000D03*
%TD*%
D22*
%TO.C,J_MOT*%
X120000000Y-55000000D03*
D23*
X125080000Y-55000000D03*
X130160000Y-55000000D03*
X135240000Y-55000000D03*
%TD*%
D11*
%TO.C,R_OR*%
X37000000Y-70000000D03*
D12*
X44620000Y-70000000D03*
%TD*%
D11*
%TO.C,R_UART*%
X76500000Y-73000000D03*
D12*
X84120000Y-73000000D03*
%TD*%
D14*
%TO.C,C_GL*%
X49500000Y-43000000D03*
D11*
X52000000Y-43000000D03*
%TD*%
%TO.C,R_G*%
X76500000Y-64000000D03*
D12*
X84120000Y-64000000D03*
%TD*%
D11*
%TO.C,C_VIO*%
X76500000Y-82000000D03*
X81500000Y-82000000D03*
%TD*%
%TO.C,R_GR*%
X12000000Y-70000000D03*
D12*
X19620000Y-70000000D03*
%TD*%
D14*
%TO.C,C_VPB*%
X37000000Y-79000000D03*
D11*
X39500000Y-79000000D03*
%TD*%
%TO.C,R_BR*%
X37000000Y-61000000D03*
D12*
X44620000Y-61000000D03*
%TD*%
D11*
%TO.C,R_BL*%
X12000000Y-43000000D03*
D12*
X19620000Y-43000000D03*
%TD*%
D11*
%TO.C,C_VP*%
X12000000Y-79000000D03*
X17000000Y-79000000D03*
%TD*%
%TO.C,C_BL*%
X24500000Y-43000000D03*
X29500000Y-43000000D03*
%TD*%
%TO.C,R_OL*%
X12000000Y-52000000D03*
D12*
X19620000Y-52000000D03*
%TD*%
D10*
%TO.C,H4*%
X134000000Y-104000000D03*
%TD*%
D11*
%TO.C,R_LDR*%
X37000000Y-52000000D03*
D12*
X44620000Y-52000000D03*
%TD*%
D11*
%TO.C,R_PWR*%
X64000000Y-73000000D03*
D12*
X71620000Y-73000000D03*
%TD*%
D22*
%TO.C,J_PL*%
X120000000Y-92000000D03*
D23*
X125080000Y-92000000D03*
X130160000Y-92000000D03*
X135240000Y-92000000D03*
%TD*%
M02*
